<svg width="12" height="13" viewBox="0 0 8 9" fill="none" xmlns="http://www.w3.org/2000/svg">
<path d="M3.40141 1.2135L3.79779 0.798345C3.96563 0.622557 4.23703 0.622557 4.40308 0.798345L7.87412 4.43192C8.04196 4.60771 8.04196 4.89196 7.87412 5.06588L4.40308 8.70133C4.23524 8.87712 3.96384 8.87712 3.79779 8.70133L3.40141 8.28617C3.23178 8.10851 3.23535 7.81865 3.40855 7.64473L5.56009 5.49787H0.428524C0.19105 5.49787 0 5.29777 0 5.04905V4.45062C0 4.2019 0.19105 4.0018 0.428524 4.0018H5.56009L3.40855 1.85494C3.23357 1.68103 3.23 1.39116 3.40141 1.2135Z" fill="white"/>
</svg>
