<svg width="15" height="13" viewBox="0 0 11 9" fill="none" xmlns="http://www.w3.org/2000/svg">
<path d="M4.67693 0.602817L5.22196 0.145294C5.45274 -0.0484314 5.82591 -0.0484314 6.05424 0.145294L10.8269 4.14965C11.0577 4.34337 11.0577 4.65663 10.8269 4.84829L6.05424 8.85471C5.82346 9.04843 5.45028 9.04843 5.22196 8.85471L4.67693 8.39718C4.4437 8.2014 4.44861 7.88196 4.68675 7.69029L7.64513 5.32436H0.58922C0.262694 5.32436 0 5.10385 0 4.82975V4.17025C0 3.89615 0.262694 3.67564 0.58922 3.67564H7.64513L4.68675 1.30971C4.44616 1.11804 4.44125 0.798603 4.67693 0.602817Z" fill="black" fill-opacity="0.6"/>
</svg>
