<svg width="24" height="25" viewBox="0 0 24 25" fill="none" xmlns="http://www.w3.org/2000/svg">
<path d="M21.9998 11.0714H4.41379L9.70679 5.77173C9.8023 5.67937 9.87848 5.56889 9.93089 5.44673C9.9833 5.32457 10.0109 5.19319 10.012 5.06024C10.0132 4.9273 9.98789 4.79545 9.93761 4.6724C9.88733 4.54935 9.81307 4.43756 9.71918 4.34355C9.62529 4.24954 9.51364 4.1752 9.39074 4.12485C9.26784 4.07451 9.13616 4.04918 9.00339 4.05033C8.87061 4.05149 8.73939 4.07911 8.61738 4.13158C8.49538 4.18406 8.38503 4.26033 8.29279 4.35596L1.29279 11.3647C1.10532 11.5525 1 11.8071 1 12.0726C1 12.3381 1.10532 12.5927 1.29279 12.7805L8.29279 19.7893C8.48139 19.9716 8.73399 20.0726 8.99619 20.0703C9.25838 20.068 9.5092 19.9627 9.6946 19.7771C9.88001 19.5914 9.98518 19.3403 9.98746 19.0778C9.98974 18.8152 9.88894 18.5623 9.70679 18.3735L4.41379 13.0739H21.9998C22.265 13.0739 22.5194 12.9684 22.7069 12.7806C22.8944 12.5928 22.9998 12.3382 22.9998 12.0726C22.9998 11.8071 22.8944 11.5524 22.7069 11.3646C22.5194 11.1768 22.265 11.0714 21.9998 11.0714Z" fill="black" fill-opacity="0.6"/>
</svg>
