<svg width="32" height="32" viewBox="0 0 32 32" fill="none" xmlns="http://www.w3.org/2000/svg">
<rect width="32" height="32" rx="16" fill="#98E2C8"/>
<path d="M26.8351 20.4012V20.5112C26.8351 21.8522 25.9226 22.6857 24.4531 22.6857H23.9531V24.5772C23.9531 24.6439 23.9663 24.7098 23.9918 24.7714C24.0173 24.8329 24.0547 24.8888 24.1018 24.9359C24.1489 24.983 24.2049 25.0203 24.2665 25.0458C24.328 25.0712 24.394 25.0843 24.4606 25.0842H26.4106C26.4772 25.0843 26.5432 25.0712 26.6048 25.0458C26.6664 25.0203 26.7223 24.983 26.7695 24.9359C26.8166 24.8888 26.854 24.8329 26.8795 24.7714C26.905 24.7098 26.9181 24.6439 26.9181 24.5772V20.3862L26.8351 20.4012Z" fill="#384149"/>
<path d="M5.19215 20.5091V20.4591L5.07815 20.4221V24.5721C5.07749 24.6391 5.09012 24.7056 5.1153 24.7677C5.14048 24.8298 5.17772 24.8862 5.22487 24.9339C5.27201 24.9815 5.32813 25.0193 5.38997 25.0451C5.45181 25.0708 5.51815 25.0841 5.58515 25.0841H7.53515C7.66961 25.0841 7.79857 25.0307 7.89365 24.9356C7.98873 24.8405 8.04215 24.7116 8.04215 24.5771V22.6856H7.57415C6.10515 22.6856 5.19215 21.8521 5.19215 20.5091Z" fill="#384149"/>
<path d="M6.5925 11.3059C6.55257 11.2128 6.48236 11.1358 6.39325 11.0875C6.30414 11.0393 6.20134 11.0225 6.1015 11.0399L4.851 11.2594C4.73548 11.2781 4.6304 11.3373 4.55462 11.4265C4.47883 11.5156 4.43731 11.6289 4.4375 11.7459V11.9914C4.43752 12.1041 4.47606 12.2134 4.54673 12.3011C4.61739 12.3889 4.71593 12.4498 4.826 12.4739L6.5985 12.8789L7.0125 12.2464L6.5925 11.3059Z" fill="#259334"/>
<path d="M27.1492 11.2593L25.8992 11.0423C25.7994 11.025 25.6967 11.0418 25.6077 11.0901C25.5187 11.1383 25.4486 11.2152 25.4087 11.3083L24.9922 12.2498L25.4112 12.8833L27.1752 12.4738C27.2854 12.4499 27.3841 12.389 27.4549 12.3012C27.5257 12.2134 27.5642 12.104 27.5642 11.9913V11.7458C27.5643 11.6285 27.5226 11.5151 27.4465 11.4259C27.3704 11.3367 27.265 11.2776 27.1492 11.2593Z" fill="#259334"/>
<path d="M26.2811 14.1127L24.9876 12.1402L24.8591 11.9442L23.7636 9.3592C23.5868 8.93944 23.3061 8.57158 22.9479 8.29027C22.5897 8.00895 22.1658 7.82344 21.7161 7.7512C19.8237 7.46387 17.9117 7.32428 15.9976 7.3337C14.0836 7.32475 12.1719 7.46484 10.2796 7.7527C9.82949 7.82459 9.40509 8.00994 9.04643 8.29127C8.68776 8.5726 8.40666 8.94065 8.22962 9.3607L7.13613 11.9442L7.00762 12.1402L5.71413 14.1127C5.29914 14.7456 5.07808 15.4859 5.07813 16.2427V20.5092C5.07813 21.9462 6.07813 22.7837 7.56013 22.7837H24.4356C25.9156 22.7837 26.9176 21.9462 26.9176 20.5092V16.2427C26.9175 15.4859 26.6963 14.7455 26.2811 14.1127Z" fill="#279D60"/>
<path d="M5.07812 19.7188V20.5092C5.07812 21.9462 6.07812 22.7837 7.56012 22.7837H24.4356C25.9156 22.7837 26.9176 21.9462 26.9176 20.5092V19.7188H5.07812Z" fill="#058040"/>
<path d="M7.8125 11.6401L8.6965 9.55563C8.8393 9.21337 9.06732 8.91336 9.35885 8.68415C9.65038 8.45493 9.99572 8.30414 10.362 8.24613C12.2285 7.96299 14.1142 7.82508 16.002 7.83363C17.8898 7.82508 19.7755 7.96299 21.642 8.24613C22.0083 8.30414 22.3536 8.45493 22.6452 8.68415C22.9367 8.91336 23.1647 9.21337 23.3075 9.55563L24.1915 11.6401H7.8125Z" fill="#C1ECFB"/>
<path d="M13.1929 11.1401H23.9819L23.3099 9.55563C23.1671 9.21337 22.9391 8.91336 22.6476 8.68415C22.356 8.45493 22.0107 8.30414 21.6444 8.24613C19.7779 7.96299 17.8922 7.82508 16.0044 7.83363C14.613 7.83134 13.2225 7.90428 11.8389 8.05213C11.7963 8.08316 11.7584 8.12022 11.7264 8.16213C11.5131 8.43527 11.3812 8.763 11.3456 9.10773C11.3101 9.45245 11.3725 9.80021 11.5256 10.1111C11.6787 10.422 11.9163 10.6834 12.2112 10.8655C12.5061 11.0475 12.8464 11.1427 13.1929 11.1401Z" fill="#DFF8FF"/>
<path d="M26.9169 16.2426C26.9167 15.4858 26.6955 14.7455 26.2804 14.1126L24.9869 12.1401L24.8584 11.9441L24.7294 11.6401H8.24388C8.14938 11.8071 8.05388 11.9801 7.95688 12.1606C7.24288 13.4886 6.54688 14.3031 6.54688 16.2631V19.4981C6.54688 19.5731 6.55038 19.6481 6.55588 19.7186H26.9169V16.2426Z" fill="#3AAA49"/>
<path d="M6.5625 19.7188C6.6625 21.0187 7.633 21.7727 9.0355 21.7727H25.911C26.1557 21.7712 26.3996 21.7437 26.6385 21.6908C26.8366 21.3291 26.9355 20.9215 26.925 20.5092V19.7188H6.5625Z" fill="#259334"/>
<path d="M7.13496 15.1543C7.13496 15.1543 9.09596 15.2763 9.36096 15.3578C9.62596 15.4393 10.643 17.3728 10.643 17.3728L7.33396 16.9058C7.18698 16.8844 7.04982 16.8193 6.94025 16.719C6.83069 16.6187 6.75377 16.4878 6.71946 16.3433C6.67426 16.1747 6.65654 16 6.66696 15.8258C6.70746 15.3778 6.84996 15.1543 7.13496 15.1543Z" fill="#FFC143"/>
<path d="M24.8674 15.1543C24.8674 15.1543 22.9064 15.2763 22.6419 15.3578C22.3774 15.4393 21.3594 17.3728 21.3594 17.3728L24.6684 16.9058C24.8154 16.8844 24.9525 16.8193 25.0621 16.719C25.1717 16.6187 25.2486 16.4878 25.2829 16.3433C25.3272 16.1746 25.3441 15.9999 25.3329 15.8258C25.2949 15.3778 25.1529 15.1543 24.8674 15.1543Z" fill="#FFC143"/>
<path d="M12.1047 17.6592L11.1172 15.5647C11.1172 15.5647 14.5957 15.8677 16.0002 15.8677C17.4047 15.8677 20.8842 15.5647 20.8842 15.5647L19.8967 17.6592L15.9767 17.8832L12.1047 17.6592Z" fill="#259334"/>
</svg>
