<svg width="24" height="24" viewBox="0 0 24 24" fill="none" xmlns="http://www.w3.org/2000/svg">
<path d="M21 1.5H3C1.7595 1.5 0.75 2.5095 0.75 3.75V15.75C0.75 16.9905 1.7595 18 3 18H5.25V21.75C5.25 22.0387 5.41575 22.3005 5.6745 22.4257C5.77875 22.4753 5.88975 22.5 6 22.5C6.16725 22.5 6.333 22.4445 6.46875 22.3358L11.8883 18H21C22.2405 18 23.25 16.9905 23.25 15.75V3.75C23.25 2.5095 22.2405 1.5 21 1.5ZM12 12H6C5.58525 12 5.25 11.664 5.25 11.25C5.25 10.836 5.58525 10.5 6 10.5H12C12.4148 10.5 12.75 10.836 12.75 11.25C12.75 11.664 12.4148 12 12 12ZM18 9H6C5.58525 9 5.25 8.664 5.25 8.25C5.25 7.836 5.58525 7.5 6 7.5H18C18.4147 7.5 18.75 7.836 18.75 8.25C18.75 8.664 18.4147 9 18 9Z" fill="#868686"/>
</svg>
