<svg width="12" height="13" viewBox="0 0 12 13" fill="none" xmlns="http://www.w3.org/2000/svg">
<path d="M6 0.0327148C2.68548 0.0327148 0 2.72156 0 6.04022C0 9.35889 2.68548 12.0477 6 12.0477C9.31452 12.0477 12 9.35889 12 6.04022C12 2.72156 9.31452 0.0327148 6 0.0327148ZM8.94194 7.6172C9.05564 7.73105 9.05564 7.91515 8.94194 8.029L7.98387 8.98584C7.87016 9.09969 7.68629 9.09969 7.57258 8.98584L6 7.39676L4.425 8.98584C4.31129 9.09969 4.12742 9.09969 4.01371 8.98584L3.05806 8.02658C2.94435 7.91273 2.94435 7.72862 3.05806 7.61477L4.64516 6.04022L3.05806 4.46325C2.94435 4.3494 2.94435 4.1653 3.05806 4.05145L4.01613 3.09218C4.12984 2.97833 4.31371 2.97833 4.42742 3.09218L6 4.68369L7.575 3.09461C7.68871 2.98075 7.87258 2.98075 7.98629 3.09461L8.94436 4.05387C9.05806 4.16772 9.05806 4.35182 8.94436 4.46568L7.35484 6.04022L8.94194 7.6172Z" fill="#4E4E4E"/>
</svg>
