<svg width="19" height="3" viewBox="0 0 19 3" fill="none" xmlns="http://www.w3.org/2000/svg">
<path d="M1.5 0C0.671371 0 0 0.671371 0 1.5C0 2.32863 0.671371 3 1.5 3C2.32863 3 3 2.32863 3 1.5C3 0.671371 2.32863 0 1.5 0Z" fill="black"/>
<path d="M9.5 0C8.67137 0 8 0.671371 8 1.5C8 2.32863 8.67137 3 9.5 3C10.3286 3 11 2.32863 11 1.5C11 0.671371 10.3286 0 9.5 0Z" fill="black"/>
<path d="M17.5 0C16.6714 0 16 0.671371 16 1.5C16 2.32863 16.6714 3 17.5 3C18.3286 3 19 2.32863 19 1.5C19 0.671371 18.3286 0 17.5 0Z" fill="black"/>
</svg>
