<svg width="14" height="10" viewBox="0 0 14 10" fill="none" xmlns="http://www.w3.org/2000/svg">
<path d="M13.1535 4.57683C11.9397 2.09381 9.53669 0.413818 6.78515 0.413818C4.03361 0.413818 1.6299 2.09498 0.416748 4.57706C0.365545 4.68325 0.338867 4.80057 0.338867 4.91956C0.338867 5.03855 0.365545 5.15587 0.416748 5.26206C1.63058 7.74508 4.03361 9.42507 6.78515 9.42507C9.53669 9.42507 11.9404 7.74391 13.1535 5.26182C13.2048 5.15563 13.2314 5.03831 13.2314 4.91933C13.2314 4.80034 13.2048 4.68302 13.1535 4.57683ZM6.78515 8.29866C6.14767 8.29866 5.52451 8.10047 4.99446 7.72916C4.46442 7.35785 4.0513 6.83009 3.80735 6.21261C3.5634 5.59514 3.49957 4.91569 3.62393 4.26019C3.7483 3.60469 4.05527 3.00257 4.50604 2.52997C4.9568 2.05738 5.53111 1.73554 6.15634 1.60516C6.78157 1.47477 7.42964 1.54169 8.01859 1.79745C8.60755 2.05322 9.11093 2.48634 9.4651 3.04205C9.81926 3.59776 10.0083 4.2511 10.0083 4.91944C10.0085 5.36327 9.92527 5.80279 9.76337 6.21287C9.60146 6.62295 9.36405 6.99556 9.06472 7.30939C8.76538 7.62323 8.40998 7.87213 8.01884 8.04187C7.62769 8.21162 7.20848 8.29888 6.78515 8.29866ZM6.78515 2.66663C6.59336 2.66944 6.4028 2.69936 6.21864 2.75557C6.37044 2.97186 6.44329 3.23802 6.42397 3.50579C6.40465 3.77356 6.29444 4.0252 6.11332 4.21509C5.93221 4.40497 5.69219 4.52052 5.43679 4.54077C5.18138 4.56103 4.92751 4.48466 4.72122 4.3255C4.60374 4.77925 4.62495 5.2602 4.78185 5.70065C4.93875 6.14111 5.22344 6.51889 5.59585 6.78082C5.96827 7.04275 6.40966 7.17565 6.85789 7.1608C7.30612 7.14596 7.73862 6.98412 8.09452 6.69806C8.45043 6.41201 8.71181 6.01614 8.84188 5.56619C8.97195 5.11623 8.96416 4.63483 8.8196 4.18976C8.67505 3.74469 8.40101 3.35835 8.03605 3.08512C7.67109 2.81189 7.2336 2.66552 6.78515 2.66663Z" fill="#4E4E4E"/>
</svg>
