<svg width="13" height="9" viewBox="0 0 13 9" fill="none" xmlns="http://www.w3.org/2000/svg">
<path d="M6.49994 7.03122C4.95924 7.03122 3.71205 5.99922 3.59729 4.69142L1.46651 3.26638C1.18641 3.57048 0.928641 3.89198 0.720641 4.24354C0.674175 4.32308 0.649965 4.41096 0.649965 4.50009C0.649965 4.58922 0.674175 4.6771 0.720641 4.75664C1.82218 6.61656 4.00293 7.87497 6.49994 7.87497C7.04654 7.87497 7.57385 7.80465 8.08207 7.6911L7.02806 6.98535C6.85399 7.01445 6.67722 7.0298 6.49994 7.03122ZM12.8744 8.0525L10.6288 6.55064C11.311 6.05317 11.872 5.44328 12.2792 4.75646C12.3257 4.67692 12.3499 4.58904 12.3499 4.49991C12.3499 4.41078 12.3257 4.3229 12.2792 4.24336C11.1777 2.38344 8.99694 1.12503 6.49994 1.12503C5.45415 1.12613 4.42535 1.35396 3.50751 1.78772L0.923359 0.0592838C0.889662 0.036592 0.851127 0.0198689 0.809958 0.01007C0.768789 0.000271101 0.725792 -0.00241144 0.683424 0.00217566C0.641056 0.00676276 0.600148 0.0185296 0.563038 0.0368037C0.525927 0.0550779 0.493341 0.0795011 0.467142 0.108678L0.068409 0.552872C0.0155151 0.611756 -0.00818632 0.686409 0.00251755 0.760413C0.0132214 0.834418 0.057454 0.901712 0.125487 0.947497L12.0765 8.94072C12.1102 8.96341 12.1487 8.98013 12.1899 8.98993C12.2311 8.99973 12.2741 9.00241 12.3164 8.99782C12.3588 8.99324 12.3997 8.98147 12.4368 8.9632C12.4739 8.94492 12.5065 8.9205 12.5327 8.89132L12.9317 8.44713C12.9845 8.38822 13.0082 8.31355 12.9975 8.23955C12.9867 8.16554 12.9424 8.09826 12.8744 8.0525ZM9.14258 5.55643L8.34431 5.02242C8.41153 4.85428 8.44719 4.6779 8.44993 4.5C8.45389 4.23954 8.38721 3.98191 8.25525 3.74779C8.12328 3.51368 7.92971 3.30961 7.69007 3.15199C7.45044 2.99436 7.17143 2.88756 6.87545 2.84017C6.57947 2.79279 6.27477 2.80613 5.98583 2.87914C6.10831 3.02277 6.17457 3.1965 6.17494 3.37501C6.17191 3.43441 6.16142 3.49335 6.14366 3.55079L4.64846 2.55078C5.16784 2.17518 5.82307 1.96921 6.49994 1.96878C6.88411 1.96859 7.26456 2.03394 7.61953 2.16108C7.97451 2.28822 8.29704 2.47466 8.56869 2.70974C8.84035 2.94482 9.05579 3.22394 9.20271 3.53112C9.34963 3.83831 9.42514 4.16754 9.42493 4.5C9.42493 4.88021 9.31747 5.23458 9.14258 5.55661V5.55643Z" fill="#4E4E4E"/>
</svg>
