<svg width="31" height="31" viewBox="0 0 31 31" fill="none" xmlns="http://www.w3.org/2000/svg">
<path d="M30.6586 15.4927C30.6586 23.008 25.2192 29.237 18.1087 30.3662V19.8449H21.5744L22.2339 15.4927H18.1087V12.6684C18.1087 11.4775 18.6851 10.317 20.5327 10.317H22.4082V6.61176C22.4082 6.61176 20.7058 6.31769 19.0784 6.31769C15.6812 6.31769 13.4606 8.40206 13.4606 12.1756V15.4927H9.68397V19.8449H13.4606V30.3662C6.35011 29.237 0.910645 23.008 0.910645 15.4927C0.910645 7.17755 7.57024 0.436279 15.7846 0.436279C23.999 0.436279 30.6586 7.17755 30.6586 15.4927Z" fill="#1877F2"/>
<path d="M21.5754 19.8449L22.2349 15.4926H18.1094V12.6683C18.1094 11.4776 18.6857 10.317 20.5335 10.317H22.4092V6.6117C22.4092 6.6117 20.7069 6.31763 19.0795 6.31763C15.6817 6.31763 13.4609 8.402 13.4609 12.1755V15.4926H9.68408V19.8449H13.4609V30.3661C14.2183 30.4863 14.9945 30.549 15.7852 30.549C16.5759 30.549 17.352 30.4863 18.1094 30.3661V19.8449H21.5754Z" fill="white"/>
</svg>
