<svg width="25" height="24" viewBox="0 0 25 24" fill="none" xmlns="http://www.w3.org/2000/svg">
<path d="M3.08078 19.0093L3.06078 19.0293C2.79078 18.4393 2.62078 17.7693 2.55078 17.0293C2.62078 17.7593 2.81078 18.4193 3.08078 19.0093Z" fill="#1A1A1A"/>
<path d="M9.50109 10.3791C10.8155 10.3791 11.8811 9.31358 11.8811 7.99914C11.8811 6.6847 10.8155 5.61914 9.50109 5.61914C8.18666 5.61914 7.12109 6.6847 7.12109 7.99914C7.12109 9.31358 8.18666 10.3791 9.50109 10.3791Z" fill="#1A1A1A"/>
<path d="M16.69 2H8.31C4.67 2 2.5 4.17 2.5 7.81V16.19C2.5 17.28 2.69 18.23 3.06 19.03C3.92 20.93 5.76 22 8.31 22H16.69C20.33 22 22.5 19.83 22.5 16.19V13.9V7.81C22.5 4.17 20.33 2 16.69 2ZM20.87 12.5C20.09 11.83 18.83 11.83 18.05 12.5L13.89 16.07C13.11 16.74 11.85 16.74 11.07 16.07L10.73 15.79C10.02 15.17 8.89 15.11 8.09 15.65L4.35 18.16C4.13 17.6 4 16.95 4 16.19V7.81C4 4.99 5.49 3.5 8.31 3.5H16.69C19.51 3.5 21 4.99 21 7.81V12.61L20.87 12.5Z" fill="#1A1A1A"/>
</svg>
