<svg width="12" height="13" viewBox="0 0 12 13" fill="none" xmlns="http://www.w3.org/2000/svg">
<g clip-path="url(#clip0_2502_38330)">
<path fill-rule="evenodd" clip-rule="evenodd" d="M5.5 0.125C7.98521 0.125 10 2.24439 10 4.85879C10 6.86542 7.34936 10.327 6.11669 11.8281C5.95641 12.0234 5.74529 12.125 5.5 12.125C5.25471 12.125 5.04359 12.0234 4.88331 11.8281C3.65064 10.327 1 6.8654 1 4.85879C1 2.24439 3.01479 0.125 5.5 0.125ZM5.5 2.97805C6.44227 2.97805 7.2064 3.7819 7.2064 4.77326C7.2064 5.76447 6.44227 6.56827 5.5 6.56827C4.55773 6.56827 3.7936 5.76447 3.7936 4.77326C3.7936 3.7819 4.55773 2.97805 5.5 2.97805Z" fill="#B92628"/>
</g>
<defs>
<clipPath id="clip0_2502_38330">
<rect width="12" height="12" fill="white" transform="translate(0 0.125)"/>
</clipPath>
</defs>
</svg>
