<svg width="15" height="20" viewBox="0 0 8 13" fill="none" xmlns="http://www.w3.org/2000/svg">
<path d="M4 12.5C6.20914 12.5 8 11.8284 8 11C8 10.1716 6.20914 9.5 4 9.5C1.79086 9.5 0 10.1716 0 11C0 11.8284 1.79086 12.5 4 12.5Z" fill="#CCEFDC"/>
<path d="M3.98974 11.5C3.98974 11.5 6.96265 8.05325 7.78076 5.41301C7.88648 5.12238 7.95339 4.82101 7.98001 4.51555C7.98001 4.42337 7.9998 4.3312 7.9998 4.24024C8.00511 3.75392 7.90614 3.27139 7.70855 2.82023C7.51096 2.36906 7.21861 1.95808 6.84819 1.61076C6.47778 1.26344 6.03656 0.986585 5.54973 0.796C5.06289 0.605414 4.53998 0.504833 4.01085 0.5H3.98974C2.92132 0.509698 1.90085 0.909067 1.15279 1.61026C0.404732 2.31145 -0.00965024 3.25704 0.000795053 4.23903V4.24024C-0.00243745 4.33238 0.00419228 4.4246 0.0205882 4.51555C0.0472056 4.82101 0.114112 5.12238 0.219837 5.41301C1.01815 8.05325 3.98974 11.5 3.98974 11.5ZM4.0003 2.73396C4.3153 2.73396 4.62323 2.81981 4.88514 2.98066C5.14705 3.14151 5.35119 3.37013 5.47174 3.63761C5.59228 3.90509 5.62382 4.19942 5.56237 4.48338C5.50092 4.76733 5.34923 5.02816 5.12649 5.23288C4.90375 5.43761 4.61996 5.57702 4.31101 5.6335C4.00206 5.68999 3.68183 5.661 3.39081 5.5502C3.09978 5.43941 2.85104 5.25179 2.67604 5.01106C2.50103 4.77033 2.40762 4.48731 2.40762 4.1978C2.4079 3.80964 2.57579 3.43746 2.87441 3.16299C3.17304 2.88852 3.57798 2.73422 4.0003 2.73396Z" fill="#15B100"/>
</svg>
