<svg width="20" height="20" viewBox="0 0 20 20" fill="none" xmlns="http://www.w3.org/2000/svg">
<path fill-rule="evenodd" clip-rule="evenodd" d="M8.0236 0.611423C9.2151 -0.203807 10.7849 -0.203807 11.9764 0.611423L18.4764 5.05879C19.4299 5.71118 20 6.79206 20 7.94739V16.365C20 18.298 18.433 19.865 16.5 19.865H3.5C1.567 19.865 0 18.298 0 16.365V7.94739C0 6.79206 0.57012 5.71118 1.52361 5.05879L8.0236 0.611423ZM7.5 15.365C7.22386 15.365 7 15.5889 7 15.865C7 16.1411 7.22386 16.365 7.5 16.365H12.5C12.7761 16.365 13 16.1411 13 15.865C13 15.5889 12.7761 15.365 12.5 15.365H7.5Z" fill="#868686"/>
</svg>
