<svg width="45" height="45" viewBox="0 0 32 32" fill="none" xmlns="http://www.w3.org/2000/svg">
<circle cx="16" cy="16" r="16" fill="#007AFF"/>
<path d="M22.75 8.125H9.25C8.31962 8.125 7.5625 8.88212 7.5625 9.8125V18.8125C7.5625 19.7429 8.31962 20.5 9.25 20.5H10.9375V23.3125C10.9375 23.5291 11.0618 23.7254 11.2559 23.8193C11.3341 23.8564 11.4173 23.875 11.5 23.875C11.6254 23.875 11.7498 23.8334 11.8516 23.7518L15.9162 20.5H22.75C23.6804 20.5 24.4375 19.7429 24.4375 18.8125V9.8125C24.4375 8.88212 23.6804 8.125 22.75 8.125ZM16 16H11.5C11.1889 16 10.9375 15.748 10.9375 15.4375C10.9375 15.127 11.1889 14.875 11.5 14.875H16C16.3111 14.875 16.5625 15.127 16.5625 15.4375C16.5625 15.748 16.3111 16 16 16ZM20.5 13.75H11.5C11.1889 13.75 10.9375 13.498 10.9375 13.1875C10.9375 12.877 11.1889 12.625 11.5 12.625H20.5C20.8111 12.625 21.0625 12.877 21.0625 13.1875C21.0625 13.498 20.8111 13.75 20.5 13.75Z" fill="white"/>
</svg>
