<svg width="25" height="24" viewBox="0 0 25 24" fill="none" xmlns="http://www.w3.org/2000/svg">
<path d="M19.6197 9.11938C19.2297 9.11938 18.9197 9.42938 18.9197 9.81938V11.3994C18.9197 14.9394 16.0397 17.8194 12.4997 17.8194C8.95969 17.8194 6.07969 14.9394 6.07969 11.3994V9.80938C6.07969 9.41938 5.76969 9.10938 5.37969 9.10938C4.98969 9.10938 4.67969 9.41938 4.67969 9.80938V11.3894C4.67969 15.4594 7.80969 18.8094 11.7997 19.1694V21.2994C11.7997 21.6894 12.1097 21.9994 12.4997 21.9994C12.8897 21.9994 13.1997 21.6894 13.1997 21.2994V19.1694C17.1797 18.8194 20.3197 15.4594 20.3197 11.3894V9.80938C20.3097 9.42938 19.9997 9.11938 19.6197 9.11938Z" fill="#1A1A1A"/>
<path d="M12.4981 2C10.0581 2 8.07812 3.98 8.07812 6.42V11.54C8.07812 13.98 10.0581 15.96 12.4981 15.96C14.9381 15.96 16.9181 13.98 16.9181 11.54V6.42C16.9181 3.98 14.9381 2 12.4981 2ZM13.8081 8.95C13.7381 9.21 13.5081 9.38 13.2481 9.38C13.1981 9.38 13.1481 9.37 13.0981 9.36C12.7081 9.25 12.2981 9.25 11.9081 9.36C11.5881 9.45 11.2781 9.26 11.1981 8.95C11.1081 8.64 11.2981 8.32 11.6081 8.24C12.1981 8.08 12.8181 8.08 13.4081 8.24C13.7081 8.32 13.8881 8.64 13.8081 8.95ZM14.3381 7.01C14.2481 7.25 14.0281 7.39 13.7881 7.39C13.7181 7.39 13.6581 7.38 13.5881 7.36C12.8881 7.1 12.1081 7.1 11.4081 7.36C11.1081 7.47 10.7681 7.31 10.6581 7.01C10.5481 6.71 10.7081 6.37 11.0081 6.27C11.9681 5.92 13.0281 5.92 13.9881 6.27C14.2881 6.38 14.4481 6.71 14.3381 7.01Z" fill="#292D32"/>
</svg>
