<svg width="22" height="22" viewBox="0 0 22 22" fill="none" xmlns="http://www.w3.org/2000/svg">
<circle cx="11" cy="11" r="11" fill="#004DB1" fill-opacity="0.68"/>
<path d="M13.2 15.5374C13.2 16.6747 12.2131 17.5999 11 17.5999C9.78697 17.5999 8.80005 16.6747 8.80005 15.5374C8.80005 14.4001 9.78697 13.4749 11 13.4749C12.2131 13.4749 13.2 14.4001 13.2 15.5374ZM9.0547 5.04956L9.4287 12.0621C9.44627 12.3914 9.73618 12.6499 10.0879 12.6499H11.9122C12.2639 12.6499 12.5538 12.3914 12.5714 12.0621L12.9454 5.04956C12.9642 4.69613 12.6637 4.3999 12.2862 4.3999H9.71387C9.33641 4.3999 9.03586 4.69613 9.0547 5.04956Z" fill="white"/>
</svg>
