<svg width="21" height="20" viewBox="0 0 21 20" fill="none" xmlns="http://www.w3.org/2000/svg">
<path d="M13.9501 2.4667L6.4251 4.9667C1.36676 6.65837 1.36676 9.4167 6.4251 11.1L8.65843 11.8417L9.4001 14.075C11.0834 19.1334 13.8501 19.1334 15.5334 14.075L18.0418 6.55837C19.1584 3.18337 17.3251 1.3417 13.9501 2.4667ZM14.2168 6.95004L11.0501 10.1334C10.9251 10.2584 10.7668 10.3167 10.6084 10.3167C10.4501 10.3167 10.2918 10.2584 10.1668 10.1334C9.9251 9.8917 9.9251 9.4917 10.1668 9.25004L13.3334 6.0667C13.5751 5.82504 13.9751 5.82504 14.2168 6.0667C14.4584 6.30837 14.4584 6.70837 14.2168 6.95004Z" fill="#004DB1"/>
</svg>
