<svg width="17" height="18" viewBox="0 0 17 18" fill="none" xmlns="http://www.w3.org/2000/svg">
<g clip-path="url(#clip0_170_24219)">
<path d="M12.9248 11.746C12.3694 11.1977 11.6761 11.1977 11.1242 11.746C10.7033 12.1635 10.2823 12.5809 9.86839 13.0054C9.75519 13.1221 9.65968 13.1469 9.52171 13.0691C9.24932 12.9205 8.95925 12.8002 8.69747 12.6375C7.47702 11.8698 6.45467 10.8829 5.54906 9.77208C5.09979 9.22023 4.70005 8.62946 4.42058 7.9644C4.36398 7.82997 4.37459 7.74154 4.48426 7.63187C4.90523 7.22506 5.31558 6.80763 5.72947 6.3902C6.30609 5.81004 6.30609 5.13083 5.72593 4.54714C5.39694 4.21461 5.06795 3.88916 4.73896 3.55663C4.39936 3.21702 4.06329 2.87388 3.72015 2.53782C3.16476 1.99657 2.4714 1.99657 1.91954 2.54135C1.49504 2.95878 1.08822 3.38683 0.65664 3.79718C0.256898 4.1757 0.0552587 4.63911 0.0128082 5.18036C-0.054405 6.06121 0.161385 6.89253 0.465613 7.70262C1.08822 9.37942 2.03628 10.8687 3.18598 12.2342C4.73896 14.0808 6.59263 15.5418 8.76114 16.596C9.7375 17.07 10.7492 17.4344 11.8494 17.4945C12.6064 17.537 13.2644 17.346 13.7915 16.7552C14.1524 16.3519 14.5592 15.984 14.9412 15.5984C15.5072 15.0253 15.5108 14.332 14.9483 13.766C14.2762 13.0903 13.6005 12.4182 12.9248 11.746Z" fill="#004DB1"/>
<path d="M12.2492 8.92638L13.5546 8.70351C13.3494 7.50429 12.7834 6.41826 11.9238 5.5551C11.0146 4.64595 9.86494 4.07287 8.5985 3.896L8.41455 5.20842C9.39445 5.34639 10.2859 5.78858 10.9899 6.49255C11.6549 7.15761 12.0901 7.99954 12.2492 8.92638Z" fill="#004DB1"/>
<path d="M14.2904 3.25221C12.7834 1.74521 10.8767 0.793616 8.77184 0.5L8.58789 1.81243C10.4062 2.06713 12.0547 2.89138 13.3565 4.18965C14.5911 5.42425 15.4012 6.98431 15.6948 8.70002L17.0002 8.47715C16.657 6.48905 15.7196 4.68491 14.2904 3.25221Z" fill="#004DB1"/>
</g>
<defs>
<clipPath id="clip0_170_24219">
<rect width="17" height="17" fill="white" transform="translate(0 0.5)"/>
</clipPath>
</defs>
</svg>
