<svg width="30" height="30" viewBox="0 0 30 30" fill="none" xmlns="http://www.w3.org/2000/svg">
<g clip-path="url(#clip0_230_2003)">
<path d="M30 15C30 23.2844 23.2844 30 15 30C6.71562 30 0 23.2844 0 15C0 6.71562 6.71562 0 15 0C23.2844 0 30 6.71562 30 15Z" fill="#004DB1"/>
<path d="M18.4104 14.5276C19.7883 13.4898 20.681 11.841 20.681 9.98726C20.681 6.85501 18.1326 4.30664 15.0001 4.30664C11.8679 4.30664 9.31949 6.85501 9.31949 9.98726C9.31949 11.841 10.2119 13.4898 11.5898 14.5276C7.90065 15.9123 5.26782 19.4756 5.26782 23.6426H7.02563C7.02563 19.2453 10.6031 15.6681 15.0003 15.6681C19.3974 15.6681 22.9748 19.2453 22.9748 23.6426H24.7326C24.7324 19.4756 22.0998 15.9123 18.4104 14.5276ZM11.0773 9.98726C11.0773 7.8241 12.8369 6.06445 15.0001 6.06445C17.1633 6.06445 18.9229 7.8241 18.9229 9.98726C18.9229 12.1504 17.1633 13.9103 15.0001 13.9103C12.8369 13.9103 11.0773 12.1504 11.0773 9.98726Z" fill="white"/>
</g>
<defs>
<clipPath id="clip0_230_2003">
<rect width="30" height="30" fill="white"/>
</clipPath>
</defs>
</svg>
