<svg width="28" height="27" viewBox="0 0 28 27" fill="none" xmlns="http://www.w3.org/2000/svg">
<path d="M20.3848 3.2157C20.1919 3.05719 19.9656 2.94098 19.7216 2.87513C19.4776 2.80928 19.2216 2.79536 18.9714 2.83433L4.44764 5.09326C3.69386 5.2079 3.00751 5.57888 2.51273 6.13908C2.01795 6.69929 1.7474 7.41174 1.75002 8.14758V9.5626C1.75002 9.71179 1.81148 9.85487 1.92088 9.96036C2.03028 10.0659 2.17866 10.1251 2.33337 10.1251H20.4167C20.5714 10.1251 20.7198 10.0659 20.8292 9.96036C20.9386 9.85487 21 9.71179 21 9.5626V4.50042C21.0002 4.25606 20.9453 4.01459 20.8391 3.79275C20.7328 3.57091 20.5778 3.37401 20.3848 3.2157Z" fill="#868686" fill-opacity="0.5"/>
<path d="M22.1666 7.3125H3.5C3.03603 7.31299 2.5912 7.49093 2.26312 7.8073C1.93504 8.12366 1.75051 8.5526 1.75 9V21.375C1.75088 22.1206 2.05846 22.8355 2.60524 23.3627C3.15203 23.89 3.89338 24.1866 4.66665 24.1874H22.1666C22.9399 24.1866 23.6813 23.89 24.2281 23.3627C24.7748 22.8355 25.0824 22.1206 25.0833 21.375V10.125C25.0824 9.37933 24.7748 8.66446 24.2281 8.1372C23.6813 7.60994 22.9399 7.31335 22.1666 7.3125Z" fill="#868686"/>
<path d="M22.1666 22.5H4.66665C3.89337 22.4992 3.15201 22.2026 2.60522 21.6753C2.05843 21.148 1.75087 20.4332 1.75 19.6875V21.375C1.75088 22.1207 2.05846 22.8355 2.60524 23.3628C3.15203 23.89 3.89338 24.1866 4.66665 24.1875H22.1666C22.9399 24.1866 23.6813 23.89 24.2281 23.3628C24.7748 22.8355 25.0824 22.1207 25.0833 21.375V19.6875C25.0824 20.4332 24.7749 21.148 24.2281 21.6753C23.6813 22.2026 22.9399 22.4992 22.1666 22.5Z" fill="#727272"/>
<path d="M17.4999 12.9375C16.7264 12.9375 15.9845 13.2338 15.4375 13.7613C14.8905 14.2887 14.5833 15.0041 14.5833 15.75C14.5833 16.4959 14.8905 17.2113 15.4375 17.7388C15.9845 18.2662 16.7264 18.5625 17.4999 18.5625H25.0833V12.9375H17.4999Z" fill="black" fill-opacity="0.4"/>
<path d="M17.5002 11.8623H25.0833C25.3799 11.8626 25.6641 11.977 25.8733 12.1787C26.0823 12.3804 26.1991 12.6532 26.1995 12.9375V16.3125L26.1946 16.418C26.1692 16.6636 26.0563 16.8947 25.8733 17.0713C25.6641 17.273 25.3799 17.3874 25.0833 17.3877H17.5002C16.7394 17.3877 16.0094 17.0964 15.4719 16.5781C14.9345 16.0599 14.6331 15.3571 14.6331 14.625C14.6331 13.8929 14.9345 13.1901 15.4719 12.6719C16.0094 12.1536 16.7394 11.8623 17.5002 11.8623Z" fill="#868686" stroke="black" stroke-width="0.1"/>
<path d="M17.4999 15.75C18.1442 15.75 18.6665 15.2463 18.6665 14.625C18.6665 14.0037 18.1442 13.5 17.4999 13.5C16.8556 13.5 16.3333 14.0037 16.3333 14.625C16.3333 15.2463 16.8556 15.75 17.4999 15.75Z" fill="#EAEFF0"/>
</svg>
