<svg width="28" height="27" viewBox="0 0 28 27" fill="none" xmlns="http://www.w3.org/2000/svg">
<path d="M20.3848 3.2157C20.1919 3.05719 19.9656 2.94098 19.7216 2.87513C19.4776 2.80928 19.2216 2.79536 18.9714 2.83433L4.44764 5.09326C3.69386 5.2079 3.00751 5.57888 2.51273 6.13908C2.01795 6.69929 1.7474 7.41174 1.75002 8.14758V9.5626C1.75002 9.71179 1.81148 9.85487 1.92088 9.96036C2.03028 10.0659 2.17866 10.1251 2.33337 10.1251H20.4167C20.5714 10.1251 20.7198 10.0659 20.8292 9.96036C20.9386 9.85487 21 9.71179 21 9.5626V4.50042C21.0002 4.25606 20.9453 4.01459 20.8391 3.79275C20.7328 3.57091 20.5778 3.37401 20.3848 3.2157Z" fill="#004DB1" fill-opacity="0.46"/>
<path d="M22.1666 7.3125H3.5C3.03603 7.31299 2.5912 7.49093 2.26312 7.8073C1.93504 8.12366 1.75051 8.5526 1.75 9V21.375C1.75088 22.1206 2.05846 22.8355 2.60524 23.3627C3.15203 23.89 3.89338 24.1866 4.66665 24.1874H22.1666C22.9399 24.1866 23.6813 23.89 24.2281 23.3627C24.7748 22.8355 25.0824 22.1206 25.0833 21.375V10.125C25.0824 9.37933 24.7748 8.66446 24.2281 8.1372C23.6813 7.60994 22.9399 7.31335 22.1666 7.3125Z" fill="#1877F2"/>
<path d="M22.1666 22.5H4.66665C3.89337 22.4992 3.15201 22.2026 2.60522 21.6753C2.05843 21.148 1.75087 20.4332 1.75 19.6875V21.375C1.75088 22.1207 2.05846 22.8355 2.60524 23.3628C3.15203 23.89 3.89338 24.1866 4.66665 24.1875H22.1666C22.9399 24.1866 23.6813 23.89 24.2281 23.3628C24.7748 22.8355 25.0824 22.1207 25.0833 21.375V19.6875C25.0824 20.4332 24.7749 21.148 24.2281 21.6753C23.6813 22.2026 22.9399 22.4992 22.1666 22.5Z" fill="#004DB1" fill-opacity="0.58"/>
<path d="M17.5002 12.9375C16.7266 12.9375 15.9848 13.2338 15.4378 13.7613C14.8908 14.2887 14.5835 15.0041 14.5835 15.75C14.5835 16.4959 14.8908 17.2113 15.4378 17.7388C15.9848 18.2662 16.7266 18.5625 17.5002 18.5625H25.0835V12.9375H17.5002Z" fill="#004DB1"/>
<path d="M17.5005 11.8623H25.0835C25.3429 11.8626 25.593 11.9496 25.7915 12.1064L25.8735 12.1787C26.0825 12.3804 26.1994 12.6532 26.1997 12.9375V16.3125L26.1948 16.418C26.1694 16.6636 26.0565 16.8947 25.8735 17.0713C25.6643 17.273 25.3801 17.3874 25.0835 17.3877H17.5005C16.8349 17.3877 16.1931 17.1645 15.6831 16.7617L15.4722 16.5781C14.9348 16.0599 14.6333 15.3571 14.6333 14.625C14.6333 13.9845 14.8641 13.3666 15.2817 12.875L15.4722 12.6719C16.0096 12.1536 16.7396 11.8623 17.5005 11.8623Z" fill="#1877F2" stroke="white" stroke-width="0.1"/>
<path d="M17.5001 15.75C18.1445 15.75 18.6668 15.2463 18.6668 14.625C18.6668 14.0037 18.1445 13.5 17.5001 13.5C16.8558 13.5 16.3335 14.0037 16.3335 14.625C16.3335 15.2463 16.8558 15.75 17.5001 15.75Z" fill="#EAEFF0"/>
</svg>
