<svg width="35" height="35" viewBox="0 0 20 20" fill="none" xmlns="http://www.w3.org/2000/svg">
<circle cx="10" cy="10" r="10" fill="#D9D9D9" fill-opacity="0.68"/>
<path d="M12 14.125C12 15.1589 11.1028 16 10 16C8.8972 16 8 15.1589 8 14.125C8 13.0911 8.8972 12.25 10 12.25C11.1028 12.25 12 13.0911 12 14.125ZM8.2315 4.5906L8.5715 10.9656C8.58748 11.265 8.85103 11.5 9.17075 11.5H10.8293C11.149 11.5 11.4125 11.265 11.4285 10.9656L11.7685 4.5906C11.7856 4.2693 11.5124 4 11.1693 4H8.83075C8.4876 4 8.21438 4.2693 8.2315 4.5906Z" fill="black"/>
</svg>
