<svg width="11" height="10" viewBox="0 0 11 10" fill="none" xmlns="http://www.w3.org/2000/svg">
<path d="M10.8762 8.45433C11.2287 9.01672 10.7862 9.71973 10.0822 9.71973H0.917703C0.212309 9.71973 -0.228111 9.01563 0.123698 8.45433L4.706 1.14134C5.05867 0.57868 5.94197 0.579699 6.29401 1.14134L10.8762 8.45433ZM5.5 6.94238C5.01484 6.94238 4.62153 7.3044 4.62153 7.75098C4.62153 8.19755 5.01484 8.55957 5.5 8.55957C5.98517 8.55957 6.37848 8.19755 6.37848 7.75098C6.37848 7.3044 5.98517 6.94238 5.5 6.94238ZM4.66597 4.03591L4.80763 6.42654C4.81426 6.5384 4.91475 6.62598 5.03646 6.62598H5.96355C6.08526 6.62598 6.18575 6.5384 6.19237 6.42654L6.33404 4.03591C6.3412 3.91508 6.23668 3.81348 6.10521 3.81348H4.89477C4.76331 3.81348 4.65881 3.91508 4.66597 4.03591Z" fill="#FF4B4B"/>
</svg>
